<svg xmlns="http://www.w3.org/2000/svg" viewBox="0 0 128 128" role="img" aria-label="PopDog Mascot">
  <defs>
    <linearGradient id="earGrad" x1="0" x2="1" y1="0" y2="1">
      <stop offset="0" stop-color="#00924A"/>
      <stop offset="1" stop-color="#007a3d"/>
    </linearGradient>
  </defs>
  <!-- Head -->
  <circle cx="64" cy="64" r="40" fill="#fff9e9" stroke="#e5d9b6" stroke-width="3"/>
  <!-- Ears -->
  <path d="M32 40c-8 0-14 8-14 16 0 10 8 16 18 12l8-4-4-20c-3-3-4-4-8-4z" fill="url(#earGrad)"/>
  <path d="M96 40c8 0 14 8 14 16 0 10-8 16-18 12l-8-4 4-20c3-3 4-4 8-4z" fill="url(#earGrad)"/>
  <!-- Eyes -->
  <circle cx="52" cy="62" r="5" fill="#222"/>
  <circle cx="76" cy="62" r="5" fill="#222"/>
  <!-- Brows (friendly) -->
  <path d="M46 54c6-4 12-4 16 0" stroke="#c9b68a" stroke-width="3" stroke-linecap="round" fill="none"/>
  <path d="M66 54c6-4 12-4 16 0" stroke="#c9b68a" stroke-width="3" stroke-linecap="round" fill="none"/>
  <!-- Nose -->
  <ellipse cx="64" cy="70" rx="6" ry="4" fill="#222"/>
  <!-- Smile -->
  <path d="M48 80c8 8 24 8 32 0" stroke="#222" stroke-width="3" stroke-linecap="round" fill="none"/>
  <!-- Bandana -->
  <path d="M40 92h48l-8 10H48z" fill="#FFD700" stroke="#e6c200" stroke-width="2"/>
  <circle cx="48" cy="96" r="3" fill="#e6c200"/>
  <circle cx="80" cy="96" r="3" fill="#e6c200"/>
</svg>